# xmcd
#
# Track frame offsets:
# 150
# 11583
# 22207
# 32771
# 43132
# 71555
#
# Disc length: 1052 seconds
#
# Revision: 1
# Processed by: cddbd v1.5.2PL0 Copyright (c) Steve Scherf et al.
# Submitted via: CedeCatalogueitor 2.6.0.6 http://personales.ya.com/cdcatalogueitor
#
DISCID=4d041a06
DTITLE=Varios Artistas - Dorapaedia #2
DYEAR=1900
DGENRE=
TTITLE0=Mai 
TTITLE1=Los Carradine
TTITLE2=Don Simón Y Telefunken
TTITLE3=Fasenuova
TTITLE4=Grande-Marlaska
TTITLE5=Zumo Natural
EXTD=
EXTT0=
EXTT1=
EXTT2=
EXTT3=
EXTT4=
EXTT5=
PLAYORDER=
